<svg width="512" height="512" viewBox="0 0 512 512" fill="none" xmlns="http://www.w3.org/2000/svg">
<g filter="url(#filter0_i_170_1065)">
<rect width="512" height="512" rx="256" fill="#131313"/>
<path d="M103.53 237.34C103.53 237.959 103.365 238.509 103.034 238.99C102.703 239.471 102.273 239.814 101.744 240.021L77.7309 248.784L101.744 257.649C102.273 257.856 102.703 258.199 103.034 258.68C103.365 259.162 103.53 259.711 103.53 260.33V268.371C103.53 269.333 103.199 270.158 102.538 270.845C101.876 271.464 101.049 271.773 100.057 271.773C99.3295 271.773 98.5688 271.601 97.7749 271.258L58.7784 255.691C57.9184 255.347 57.2238 254.797 56.6946 254.041C56.2315 253.216 56 252.357 56 251.464V246.206C56 245.244 56.2315 244.385 56.6946 243.629C57.2238 242.804 57.9184 242.254 58.7784 241.979L97.7749 226.412C98.5688 226.069 99.3295 225.897 100.057 225.897C101.049 225.897 101.876 226.206 102.538 226.825C103.199 227.443 103.53 228.234 103.53 229.196V237.34Z" fill="white"/>
<path d="M149.177 238.68C155.197 240.674 159.795 242.632 162.97 244.557C166.211 246.481 168.494 248.784 169.817 251.464C171.206 254.076 171.9 257.443 171.9 261.567C171.9 265.691 170.809 269.402 168.626 272.701C166.443 276 163.4 278.612 159.497 280.536C155.66 282.392 151.36 283.32 146.597 283.32C141.57 283.32 137.138 282.632 133.301 281.258C129.464 279.814 126.454 277.821 124.271 275.278C122.154 272.735 121.096 269.814 121.096 266.515C121.096 263.491 121.956 261.017 123.676 259.093C125.462 257.168 127.744 256.206 130.522 256.206C133.367 256.206 135.616 257.031 137.27 258.68C138.99 260.261 139.85 262.357 139.85 264.969C139.85 266 139.685 267.1 139.354 268.268C141.272 269.162 143.389 269.608 145.704 269.608C152.584 269.608 156.024 267.237 156.024 262.495C156.024 261.189 155.759 260.158 155.23 259.402C154.701 258.577 153.742 257.821 152.353 257.134C150.963 256.447 148.813 255.656 145.903 254.763C140.081 252.838 135.451 250.845 132.011 248.784C128.571 246.653 126.024 244.213 124.37 241.464C122.783 238.646 121.989 235.244 121.989 231.258C121.989 226.928 123.08 223.079 125.263 219.711C127.513 216.344 130.622 213.732 134.591 211.876C138.626 210.021 143.257 209.093 148.483 209.093C152.783 209.093 156.619 209.849 159.993 211.361C163.433 212.804 166.112 214.832 168.031 217.443C170.015 219.986 171.007 222.873 171.007 226.103C171.007 229.196 170.147 231.704 168.428 233.629C166.708 235.485 164.425 236.412 161.581 236.412C158.802 236.412 156.553 235.622 154.833 234.041C153.113 232.46 152.253 230.33 152.253 227.649C152.253 226.344 152.452 225.175 152.849 224.144C151.724 223.251 149.773 222.804 146.994 222.804C144.084 222.804 141.834 223.423 140.247 224.66C138.659 225.897 137.865 227.615 137.865 229.814C137.865 231.258 138.163 232.46 138.758 233.423C139.42 234.316 140.511 235.175 142.033 236C143.621 236.756 146.002 237.649 149.177 238.68Z" fill="white"/>
<path d="M215.679 210.124C226.263 210.124 234.466 213.113 240.287 219.093C246.175 225.003 249.118 233.32 249.118 244.041C249.118 251.533 247.729 258.165 244.951 263.938C242.172 269.711 238.269 274.213 233.242 277.443C228.281 280.674 222.591 282.289 216.175 282.289H190.971C189.516 282.289 188.358 281.945 187.498 281.258C186.638 280.502 186.208 279.333 186.208 277.753V273.216C186.208 271.636 186.638 270.467 187.498 269.711C188.358 268.955 189.516 268.577 190.971 268.577H192.459V223.835H190.971C189.516 223.835 188.358 223.457 187.498 222.701C186.638 221.945 186.208 220.777 186.208 219.196V214.66C186.208 213.079 186.638 211.945 187.498 211.258C188.358 210.502 189.516 210.124 190.971 210.124H215.679ZM215.579 268.577C221.004 268.577 225.238 266.481 228.281 262.289C231.324 258.027 232.845 252.151 232.845 244.66C232.845 237.649 231.357 232.426 228.38 228.99C225.469 225.553 221.07 223.835 215.182 223.835H208.336V268.577H215.579Z" fill="white"/>
<path d="M351.432 210.124C352.888 210.124 354.045 210.502 354.905 211.258C355.765 211.945 356.195 213.079 356.195 214.66V219.196C356.195 220.777 355.765 221.945 354.905 222.701C354.045 223.457 352.888 223.835 351.432 223.835H349.944L335.953 278.68C335.688 279.78 335.093 280.674 334.167 281.361C333.241 281.979 332.215 282.289 331.091 282.289H323.351C322.16 282.289 321.102 281.979 320.176 281.361C319.316 280.674 318.72 279.78 318.39 278.68L307.177 241.876L295.964 278.68C295.633 279.78 295.005 280.674 294.079 281.361C293.153 281.979 292.094 282.289 290.903 282.289H283.064C281.94 282.289 280.914 281.979 279.988 281.361C279.062 280.674 278.467 279.78 278.202 278.68L264.211 223.835H262.723C261.334 223.835 260.209 223.457 259.349 222.701C258.489 221.945 258.059 220.777 258.059 219.196V214.66C258.059 213.079 258.489 211.945 259.349 211.258C260.209 210.502 261.334 210.124 262.723 210.124H281.874C283.263 210.124 284.387 210.502 285.247 211.258C286.107 211.945 286.537 213.079 286.537 214.66V219.196C286.537 220.777 286.107 221.945 285.247 222.701C284.387 223.457 283.263 223.835 281.874 223.835H280.385L289.018 259.093L299.735 224.144C300.065 223.045 300.628 222.186 301.422 221.567C302.215 220.88 303.142 220.536 304.2 220.536H313.031C314.024 220.536 314.917 220.88 315.71 221.567C316.504 222.186 317.066 223.045 317.397 224.144L328.015 258.68L336.548 223.835H335.06C333.604 223.835 332.447 223.457 331.587 222.701C330.727 221.945 330.297 220.777 330.297 219.196V214.66C330.297 213.079 330.727 211.945 331.587 211.258C332.447 210.502 333.604 210.124 335.06 210.124H351.432Z" fill="white"/>
<path d="M355.666 306C353.351 306 352.193 304.969 352.193 302.907C352.193 302.357 352.325 301.601 352.59 300.639L379.481 211.052C380.01 209.333 380.605 208.062 381.267 207.237C381.994 206.412 383.02 206 384.343 206H391.785C394.1 206 395.258 207.031 395.258 209.093C395.258 209.643 395.126 210.399 394.861 211.361L367.871 300.948C367.408 302.667 366.812 303.938 366.085 304.763C365.357 305.588 364.332 306 363.009 306H355.666Z" fill="white"/>
<path d="M453.122 241.979C453.982 242.254 454.677 242.804 455.206 243.629C455.735 244.385 456 245.244 456 246.206V251.464C456 252.426 455.735 253.285 455.206 254.041C454.677 254.797 453.982 255.347 453.122 255.691L414.225 271.258C413.365 271.601 412.604 271.773 411.943 271.773C410.884 271.773 410.024 271.464 409.363 270.845C408.768 270.158 408.47 269.333 408.47 268.371V260.33C408.47 259.711 408.602 259.162 408.867 258.68C409.198 258.199 409.628 257.856 410.157 257.649L434.269 248.784L410.157 240.021C409.628 239.814 409.198 239.471 408.867 238.99C408.602 238.509 408.47 237.959 408.47 237.34V229.196C408.47 228.234 408.768 227.443 409.363 226.825C410.024 226.206 410.884 225.897 411.943 225.897C412.604 225.897 413.365 226.069 414.225 226.412L453.122 241.979Z" fill="white"/>
<rect x="5" y="5" width="502" height="502" rx="251" stroke="#0C0C0C" strokeWidth="10"/>
</g>
<defs>
<filter id="filter0_i_170_1065" x="0" y="0" width="512" height="512" filterUnits="userSpaceOnUse" color-interpolation-filters="sRGB">
<feFlood floodOpacity="0" result="BackgroundImageFix"/>
<feBlend mode="normal" in="SourceGraphic" in2="BackgroundImageFix" result="shape"/>
<feColorMatrix in="SourceAlpha" type="matrix" values="0 0 0 0 0 0 0 0 0 0 0 0 0 0 0 0 0 0 127 0" result="hardAlpha"/>
<feOffset/>
<feGaussianBlur stdDeviation="32"/>
<feComposite in2="hardAlpha" operator="arithmetic" k2="-1" k3="1"/>
<feColorMatrix type="matrix" values="0 0 0 0 0 0 0 0 0 0 0 0 0 0 0 0 0 0 1 0"/>
<feBlend mode="normal" in2="shape" result="effect1_innerShadow_170_1065"/>
</filter>
</defs>
</svg>
