<svg width="180" height="52" viewBox="0 0 180 52" fill="none" xmlns="http://www.w3.org/2000/svg">
<path d="M9.82837 23.0256C12.291 20.3965 14.5996 19.0819 16.7544 19.0819C18.6453 19.0819 20.5362 20.1737 22.4271 22.3571L11.2136 33.386L22.5591 44.5485C21.7675 45.5288 20.888 46.3087 19.9206 46.8879C18.9971 47.4672 17.9637 47.7569 16.8204 47.7569C15.8089 47.7569 14.7316 47.4672 13.5882 46.8879C12.4449 46.2641 11.2356 45.2615 9.96029 43.8801L0 33.3191L9.82837 23.0256Z" />
<path d="M38.1256 30.0439H37.3341C36.3227 30.0439 35.3112 29.9325 34.2998 29.7097C33.2884 29.4869 32.343 29.0858 31.4635 28.5066C30.6279 27.8827 29.9463 27.0583 29.4186 26.0334C28.8909 24.964 28.6271 23.6271 28.6271 22.0229V10.9273C28.6271 9.32307 28.8909 8.00852 29.4186 6.98362C29.9463 5.91416 30.6279 5.08978 31.4635 4.51048C32.343 3.88663 33.2884 3.4633 34.2998 3.2405C35.3112 3.01769 36.3227 2.90629 37.3341 2.90629H38.1256V30.0439ZM28.1653 45.0164C28.1653 43.635 28.4292 42.521 28.9569 41.6743C29.4846 40.7831 30.1222 40.0924 30.8698 39.6022C31.6174 39.1121 32.4089 38.8001 33.2444 38.6664C34.08 38.4882 34.8055 38.3991 35.4212 38.3991C35.9489 38.3991 36.3886 38.4436 36.7404 38.5328V41.8748C36.7404 43.5236 37.3781 44.348 38.6533 44.348C39.0491 44.348 39.3789 44.2811 39.6428 44.1474C39.9066 44.0138 40.1925 43.8132 40.5003 43.5459C40.6322 43.9024 40.6982 44.348 40.6982 44.8827C40.7421 45.4174 40.7641 45.8408 40.7641 46.1527C40.7641 46.6874 40.6762 47.2667 40.5003 47.8906C40.3244 48.5144 40.0166 49.0937 39.5768 49.6284C39.181 50.1186 38.6094 50.5419 37.8618 50.8984C37.1142 51.2549 36.1688 51.4332 35.0254 51.4332C33.8381 51.4332 32.8047 51.2326 31.9252 50.8316C31.0897 50.4305 30.3861 49.9404 29.8144 49.3611C29.2867 48.7372 28.8689 48.0465 28.5611 47.289C28.2973 46.5315 28.1653 45.7739 28.1653 45.0164ZM41.8195 24.3624H42.6111C43.5785 24.3624 44.5679 24.4738 45.5794 24.6966C46.6348 24.9194 47.5802 25.3427 48.4157 25.9666C49.2952 26.5459 49.9988 27.3702 50.5265 28.4397C51.0542 29.4646 51.3181 30.7792 51.3181 32.3834V43.479C51.3181 45.0832 51.0542 46.4201 50.5265 47.4895C49.9988 48.5144 49.2952 49.3388 48.4157 49.9626C47.5802 50.5419 46.6348 50.943 45.5794 51.1658C44.5679 51.3886 43.5785 51.5 42.6111 51.5H41.8195V24.3624ZM51.6479 9.32306C51.6479 10.749 51.384 11.8853 50.8563 12.732C50.3286 13.5786 49.691 14.2471 48.9434 14.7372C48.1959 15.2274 47.4043 15.5616 46.5688 15.7398C45.7333 15.8735 45.0077 15.9404 44.392 15.9404C43.8643 15.9404 43.4246 15.8958 43.0728 15.8067V12.4646C43.0728 10.8159 42.4352 9.99148 41.1599 9.99148C40.7641 9.99148 40.4343 10.0583 40.1705 10.192C39.9066 10.3257 39.6208 10.5262 39.313 10.7936C39.181 10.4371 39.0931 9.99148 39.0491 9.45675C39.0491 8.92202 39.0491 8.49869 39.0491 8.18676C39.0491 7.65203 39.1371 7.07274 39.313 6.44888C39.4889 5.82503 39.7747 5.26802 40.1705 4.77785C40.6102 4.24312 41.2039 3.79751 41.9514 3.44102C42.699 3.08453 43.6445 2.90629 44.7878 2.90629C45.9751 2.90629 46.9866 3.10682 47.8221 3.50786C48.7016 3.90891 49.4052 4.42136 49.9329 5.04522C50.5045 5.62451 50.9223 6.3152 51.1862 7.1173C51.494 7.87484 51.6479 8.61009 51.6479 9.32306Z" />
<path d="M83.3288 42.4096C83.3288 45.2169 82.6252 47.4227 81.218 49.0269C79.8108 50.6311 77.788 51.4332 75.1495 51.4332C74.27 51.4332 73.4345 51.3218 72.6429 51.0989C71.8514 50.8316 71.1478 50.4528 70.5321 49.9626C69.9165 49.4725 69.4108 48.8709 69.015 48.1579C68.6632 47.445 68.4873 46.6206 68.4873 45.6848C68.4873 45.3283 68.5093 45.0164 68.5533 44.749C68.6412 44.4371 68.7512 44.1029 68.8831 43.7464C69.4548 44.2811 70.1584 44.5485 70.9939 44.5485C71.5216 44.5485 71.9173 44.4148 72.1812 44.1474C72.489 43.8801 72.7309 43.5459 72.9068 43.1448C73.0827 42.6992 73.1926 42.2313 73.2366 41.7412C73.2806 41.2064 73.3025 40.694 73.3025 40.2038V14.1356C73.3025 13.6455 73.2806 13.1553 73.2366 12.6651C73.1926 12.1304 73.0827 11.6625 72.9068 11.2615C72.7309 10.8159 72.489 10.4594 72.1812 10.192C71.9173 9.92464 71.5216 9.79096 70.9939 9.79096C70.1584 9.79096 69.4548 10.0583 68.8831 10.5931C68.6192 9.88008 68.4873 9.23394 68.4873 8.65465C68.4873 7.94168 68.5972 7.25098 68.8171 6.58257C69.081 5.86959 69.4767 5.24574 70.0044 4.71101C70.5321 4.17628 71.1918 3.75295 71.9833 3.44102C72.8188 3.08453 73.8302 2.90629 75.0176 2.90629C76.3368 2.90629 77.5021 3.15138 78.5136 3.64155C79.569 4.08715 80.4485 4.73329 81.1521 5.57995C81.8556 6.38204 82.3833 7.3401 82.7351 8.45413C83.1309 9.52359 83.3288 10.6822 83.3288 11.9299V42.4096ZM67.4319 51.4332H66.7723C65.6289 51.4332 64.5296 51.3218 63.4742 51.0989C62.4188 50.8761 61.4733 50.4751 60.6378 49.8958C59.8463 49.3165 59.1866 48.5144 58.6589 47.4895C58.1752 46.4646 57.9334 45.1278 57.9334 43.479V2.90629H58.9888C60.0441 2.90629 61.0776 3.03997 62.089 3.30734C63.1004 3.53014 64.0019 3.95347 64.7934 4.57733C65.585 5.15662 66.2226 5.95872 66.7063 6.98362C67.1901 8.00852 67.4319 9.32307 67.4319 10.9273V51.4332Z" />
<path d="M110.726 51.4332H110.067C108.923 51.4332 107.824 51.3218 106.769 51.0989C105.713 50.8761 104.768 50.4751 103.932 49.8958C103.141 49.3165 102.481 48.5144 101.953 47.4895C101.47 46.4646 101.228 45.1278 101.228 43.479V2.90629H102.283C103.339 2.90629 104.372 3.03997 105.383 3.30734C106.395 3.53014 107.296 3.95347 108.088 4.57733C108.879 5.15662 109.517 5.95872 110.001 6.98362C110.484 8.00852 110.726 9.32307 110.726 10.9273V51.4332ZM86.9799 9.52359C86.9799 8.76605 87.1118 8.00852 87.3757 7.25098C87.6395 6.49345 88.0573 5.80275 88.629 5.1789C89.2006 4.55505 89.9042 4.06487 90.7398 3.70839C91.5753 3.30734 92.5647 3.10681 93.7081 3.10681C94.8954 3.10681 95.9068 3.32962 96.7423 3.77523C97.5778 4.17628 98.2375 4.68873 98.7212 5.31258C99.2489 5.89187 99.6227 6.53801 99.8425 7.25098C100.106 7.9194 100.238 8.52097 100.238 9.0557C100.238 9.41219 100.216 9.74639 100.172 10.0583C100.172 10.3257 100.106 10.6376 99.9745 10.9941C99.3588 10.4594 98.6552 10.192 97.8637 10.192C97.2041 10.192 96.6544 10.4148 96.2146 10.8604C95.7749 11.2615 95.555 11.8853 95.555 12.732V16.0072C95.2032 16.0963 94.7634 16.1409 94.2358 16.1409C93.6201 16.1409 92.8945 16.074 92.059 15.9404C91.2235 15.7621 90.4319 15.4279 89.6844 14.9377C88.9368 14.4476 88.2992 13.7792 87.7715 12.9325C87.2438 12.0858 86.9799 10.9495 86.9799 9.52359ZM125.04 9.52359C125.04 10.9495 124.776 12.0858 124.249 12.9325C123.721 13.7792 123.083 14.4476 122.336 14.9377C121.588 15.4279 120.797 15.7621 119.961 15.9404C119.125 16.074 118.4 16.1409 117.784 16.1409C117.257 16.1409 116.817 16.0963 116.465 16.0072V12.9325C116.465 11.9967 116.245 11.306 115.805 10.8604C115.366 10.4148 114.816 10.192 114.156 10.192C113.321 10.192 112.617 10.4594 112.046 10.9941C111.914 10.6376 111.826 10.3257 111.782 10.0583C111.782 9.74639 111.782 9.41219 111.782 9.0557C111.782 8.52097 111.892 7.9194 112.112 7.25098C112.375 6.53801 112.749 5.89187 113.233 5.31258C113.761 4.68873 114.42 4.17628 115.212 3.77523C116.047 3.32962 117.037 3.10681 118.18 3.10681C119.367 3.10681 120.379 3.30734 121.214 3.70839C122.094 4.10943 122.797 4.62189 123.325 5.24574C123.897 5.82503 124.315 6.51573 124.578 7.31782C124.886 8.07536 125.04 8.81062 125.04 9.52359Z" />
<path d="M141.327 0.5H142.119C143.086 0.5 144.076 0.611402 145.087 0.834207C146.142 1.05701 147.088 1.48034 147.923 2.10419C148.803 2.68349 149.506 3.50786 150.034 4.57733C150.562 5.60223 150.826 6.91678 150.826 8.52097V18.9482C150.826 20.5524 150.562 21.8893 150.034 22.9587C149.506 23.9836 148.803 24.808 147.923 25.4318C147.088 26.0111 146.142 26.4122 145.087 26.635C144.076 26.8578 143.086 26.9692 142.119 26.9692H141.327V0.5ZM138.821 51.4332H138.029C137.018 51.4332 136.006 51.3218 134.995 51.0989C133.983 50.8761 133.038 50.4751 132.158 49.8958C131.323 49.272 130.641 48.4476 130.114 47.4227C129.586 46.3532 129.322 45.0164 129.322 43.4122V32.9849C129.322 31.3807 129.586 30.0662 130.114 29.0413C130.641 27.9718 131.323 27.1474 132.158 26.5682C133.038 25.9443 133.983 25.521 134.995 25.2982C136.006 25.0754 137.018 24.964 138.029 24.964H138.821V51.4332Z" />
<path d="M180 33.3191L170.04 43.8801C168.764 45.2615 167.533 46.2641 166.346 46.8879C165.159 47.4672 164.059 47.7569 163.048 47.7569C161.948 47.7569 160.937 47.4672 160.013 46.8879C159.09 46.3087 158.232 45.5288 157.441 44.5485L168.786 33.386L157.573 22.3571C159.464 20.1737 161.355 19.0819 163.246 19.0819C165.356 19.0819 167.665 20.3965 170.172 23.0256L180 33.3191Z" />
</svg>
